<?xml version="1.0" encoding="UTF-8"?>
<svg width="320px" height="100px" viewBox="0 0 320 100" version="1.1" xmlns="http://www.w3.org/2000/svg" xmlns:xlink="http://www.w3.org/1999/xlink">
    <!-- Generator: Sketch 52.6 (67491) - http://www.bohemiancoding.com/sketch -->
    <title>bookr-logotype</title>
    <desc>Created with Sketch.</desc>
    <defs>
        <linearGradient x1="50%" y1="0%" x2="50%" y2="100%" id="linearGradient-1">
            <stop stop-color="#FCE086" offset="0%"></stop>
            <stop stop-color="#F7BE4E" offset="100%"></stop>
        </linearGradient>
    </defs>
    <g id="bookr-logotype" stroke="none" stroke-width="1" fill="none" fill-rule="evenodd">
        <path d="M34.259,58.698 C41.5103696,60.304008 45.136,64.2216355 45.136,70.451 C45.136,72.6896779 44.6980044,74.7579905 43.822,76.656 C42.9459956,78.6026764 41.705008,80.2573265 40.099,81.62 C38.5903258,82.9340066 36.5950124,84.0046625 34.113,84.832 C31.7769883,85.6106706 29.0516822,86 25.937,86 L0.46,86 L0.46,81.693 C0.46,80.4763272 1.06832725,79.7220015 2.285,79.43 L2.723,79.357 C2.86900073,79.357 3.02716582,79.3326669 3.1975,79.284 C3.36783418,79.2353331 3.57466545,79.1866669 3.818,79.138 L6.008,78.773 L6.008,40.448 L3.818,40.083 C3.57466545,40.0343331 3.36783418,39.9856669 3.1975,39.937 C3.02716582,39.8883331 2.86900073,39.864 2.723,39.864 L2.285,39.791 C1.06832725,39.4989985 0.46,38.7446728 0.46,37.528 L0.46,33.221 L24.185,33.221 C27.6890175,33.221 30.6333214,33.5373302 33.018,34.17 C35.5486793,34.8513367 37.5683258,35.8003273 39.077,37.017 C40.6343411,38.2336728 41.7779963,39.7179912 42.508,41.47 C43.2380036,43.2220088 43.603,45.1443229 43.603,47.237 C43.603,48.5510066 43.4326684,49.743328 43.092,50.814 C42.7513316,51.884672 42.1673375,52.955328 41.34,54.026 C40.6099964,54.9020044 39.6366727,55.7779956 38.42,56.654 C37.349328,57.3840037 35.9623419,58.0653302 34.259,58.698 Z M23.674,56.07 C27.0320168,56.07 29.5626581,55.4616728 31.266,54.245 C32.9693418,53.0283273 33.821,51.0816801 33.821,48.405 C33.821,45.679653 33.0423411,43.7330058 31.485,42.565 C29.9763258,41.3969942 27.5430168,40.813 24.185,40.813 L15.79,40.813 L15.79,56.07 L23.674,56.07 Z M34.916,73.371 C35.2566684,72.4949956 35.427,71.4486728 35.427,70.232 C35.427,69.2099949 35.2323353,68.1880051 34.843,67.166 C34.4536647,66.1926618 33.8940037,65.4140029 33.164,64.83 C32.4339963,64.2459971 31.4363397,63.7593353 30.171,63.37 C29.0029942,63.0293316 27.5186757,62.859 25.718,62.859 L15.79,62.859 L15.79,78.335 L25.791,78.335 C27.6403426,78.335 29.1733272,78.1160022 30.39,77.678 C31.6066727,77.2399978 32.5799963,76.6560037 33.31,75.926 C34.0886706,75.1473294 34.6239985,74.2956713 34.916,73.371 Z M64.795,47.967 C67.47168,47.967 70.0023214,48.4293287 72.387,49.354 C74.7230117,50.2786713 76.6696589,51.543992 78.227,53.15 C79.7843411,54.756008 81.0009956,56.7756545 81.877,59.209 C82.7530044,61.5936786 83.191,64.2459854 83.191,67.166 C83.191,70.0860146 82.7530044,72.7626545 81.877,75.196 C80.9523287,77.6780124 79.7356742,79.721992 78.227,81.328 C76.620992,83.0313419 74.6743448,84.3209956 72.387,85.197 C70.1483221,86.0730044 67.6176808,86.511 64.795,86.511 C61.9723192,86.511 59.4173448,86.0730044 57.13,85.197 C54.8426552,84.3209956 52.896008,83.0313419 51.29,81.328 C49.5866581,79.5759912 48.3213375,77.5320117 47.494,75.196 C46.6179956,72.7626545 46.18,70.0860146 46.18,67.166 C46.18,64.2459854 46.6179956,61.5936786 47.494,59.209 C48.3213375,56.9703221 49.5866581,54.9506757 51.29,53.15 C52.8473411,51.543992 54.7939883,50.2786713 57.13,49.354 C59.5146786,48.4293287 62.069653,47.967 64.795,47.967 Z M64.795,79.576 C67.9096822,79.576 70.1969927,78.5296771 71.657,76.437 C73.1656742,74.246989 73.92,71.1810197 73.92,67.239 C73.92,63.2969803 73.1656742,60.2310109 71.657,58.041 C70.1969927,55.899656 67.9096822,54.829 64.795,54.829 C61.6803178,54.829 59.3443411,55.899656 57.787,58.041 C56.2296589,60.182344 55.451,63.2726465 55.451,67.312 C55.451,71.2540197 56.2296589,74.295656 57.787,76.437 C59.2956742,78.5296771 61.6316509,79.576 64.795,79.576 Z M103.069,47.967 C105.74568,47.967 108.276321,48.4293287 110.661,49.354 C112.997012,50.2786713 114.943659,51.543992 116.501,53.15 C118.058341,54.756008 119.274996,56.7756545 120.151,59.209 C121.027004,61.5936786 121.465,64.2459854 121.465,67.166 C121.465,70.0860146 121.027004,72.7626545 120.151,75.196 C119.226329,77.6780124 118.009674,79.721992 116.501,81.328 C114.894992,83.0313419 112.948345,84.3209956 110.661,85.197 C108.422322,86.0730044 105.891681,86.511 103.069,86.511 C100.246319,86.511 97.6913448,86.0730044 95.404,85.197 C93.1166552,84.3209956 91.170008,83.0313419 89.564,81.328 C87.8606582,79.5759912 86.5953375,77.5320117 85.768,75.196 C84.8919956,72.7626545 84.454,70.0860146 84.454,67.166 C84.454,64.2459854 84.8919956,61.5936786 85.768,59.209 C86.5953375,56.9703221 87.8606582,54.9506757 89.564,53.15 C91.1213411,51.543992 93.0679883,50.2786713 95.404,49.354 C97.7886786,48.4293287 100.343653,47.967 103.069,47.967 Z M103.069,79.576 C106.183682,79.576 108.470993,78.5296771 109.931,76.437 C111.439674,74.246989 112.194,71.1810197 112.194,67.239 C112.194,63.2969803 111.439674,60.2310109 109.931,58.041 C108.470993,55.899656 106.183682,54.829 103.069,54.829 C99.9543178,54.829 97.6183411,55.899656 96.061,58.041 C94.5036589,60.182344 93.725,63.2726465 93.725,67.312 C93.725,71.2540197 94.5036589,74.295656 96.061,76.437 C97.5696742,78.5296771 99.9056509,79.576 103.069,79.576 Z M163.732,79.43 C164.948673,79.7220015 165.557,80.4763272 165.557,81.693 L165.557,86 L155.994,86 C155.36133,86 154.753003,85.8783346 154.169,85.635 C153.682331,85.4403324 153.244335,85.0266698 152.855,84.394 L143.365,70.159 C143.024332,69.5749971 142.659335,69.2100007 142.27,69.064 C141.929332,68.9179993 141.369671,68.845 140.591,68.845 L138.547,68.845 L138.547,78.773 L140.737,79.138 L141.832,79.357 L142.27,79.43 C143.486673,79.7220015 144.095,80.4763272 144.095,81.693 L144.095,86 L124.02,86 L124.02,81.693 C124.02,80.4763272 124.628327,79.7220015 125.845,79.43 L126.283,79.357 C126.429001,79.357 126.587166,79.3326669 126.7575,79.284 C126.927834,79.2353331 127.134665,79.1866669 127.378,79.138 L129.568,78.773 L129.568,38.988 L127.378,38.623 C127.134665,38.5743331 126.927834,38.5256669 126.7575,38.477 C126.587166,38.4283331 126.429001,38.404 126.283,38.404 L125.845,38.331 C124.628327,38.0389985 124.02,37.2846728 124.02,36.068 L124.02,31.761 L138.547,31.761 L138.547,62.786 L140.226,62.786 C140.85867,62.786 141.345332,62.7130007 141.686,62.567 C141.978001,62.4696662 142.342998,62.153336 142.781,61.618 L147.964,55.267 L147.307,55.121 C146.090327,54.8289985 145.482,54.0746728 145.482,52.858 L145.482,48.551 L154.461,48.551 L154.461,48.624 C154.655668,48.5753331 154.898999,48.551 155.191,48.551 L163.221,48.551 L163.221,52.858 C163.221,54.0746728 162.612673,54.8289985 161.396,55.121 L160.812,55.194 L159.352,55.413 L157.381,55.705 L151.833,62.421 L150.519,63.881 C150.032331,64.3676691 149.570002,64.7326654 149.132,64.976 C149.716003,65.4140022 150.153999,65.8276647 150.446,66.217 C150.592001,66.4116676 150.762332,66.6306655 150.957,66.874 C151.151668,67.1173346 151.370665,67.4336647 151.614,67.823 L159.133,78.773 C160.203672,78.9676676 160.982331,79.0893331 161.469,79.138 C162.539672,79.2353338 163.050667,79.284 163.002,79.284 L163.732,79.43 Z M193.078,47.894 C194.976009,47.894 196.508994,48.3076625 197.677,49.135 L196.509,55.924 C196.460333,56.3620022 196.314335,56.6539993 196.071,56.8 C195.778999,56.9946676 195.438335,57.092 195.049,57.092 C194.708332,57.092 194.22167,57.0190007 193.589,56.873 C192.712996,56.6783324 191.861337,56.581 191.034,56.581 C189.135991,56.581 187.530007,57.0919949 186.216,58.114 C184.999327,59.0386713 183.880005,60.571656 182.858,62.713 L182.858,78.773 L186.508,79.43 C187.724673,79.7220015 188.333,80.4763272 188.333,81.693 L188.333,86 L168.331,86 L168.331,81.693 C168.331,80.4763272 168.939327,79.7220015 170.156,79.43 L173.806,78.773 L173.806,55.778 L170.156,55.121 C168.939327,54.8289985 168.331,54.0746728 168.331,52.858 L168.331,48.551 L179.135,48.551 C180.059671,48.551 180.692332,48.7213316 181.033,49.062 C181.373668,49.4026684 181.616999,49.9866625 181.763,50.814 L182.347,55.34 C183.661007,52.9553214 185.218324,51.1303397 187.019,49.865 C188.868343,48.5509934 190.887989,47.894 193.078,47.894 Z" id="Bookr" fill="#333333"></path>
        <g id="logo-copy" transform="translate(216.000000, 0.000000)" stroke="#333333" stroke-width="3.6199095">
            <path d="M3.6173913,28.959276 C2.61945373,28.959276 1.80995475,29.7693385 1.80995475,30.7692308 L1.80995475,96.0358177 C1.80995558,96.0379455 1.80995558,96.0379455 1.80995975,96.0400733 C1.81230742,97.0399604 2.62370251,97.8481138 3.62163503,97.8457675 L100.386852,97.6182527 C101.383131,97.6159103 102.190045,96.8065351 102.190045,95.8083029 L102.190045,30.7692308 C102.190045,29.7693385 101.380546,28.959276 100.382609,28.959276 L3.6173913,28.959276 Z" id="Rectangle-Copy-5" fill="#FFFFFF"></path>
            <path d="M54.0641664,23.9211472 C52.9273309,24.772427 52.453433,25.4243579 52.453433,25.7484579 L52.453433,95.6765577 C52.453433,95.9475501 52.5141996,96.2150742 52.6312373,96.4593917 C53.062894,97.3604803 54.1419792,97.7405011 55.0417296,97.3088852 L90.7634687,80.1729402 C91.3907168,79.8720453 91.7900452,79.2373363 91.7900452,78.5406127 L91.7900452,15.3855541 C91.7900452,15.2149212 91.7659499,15.045148 91.7184766,14.8812761 C91.4403657,13.9212707 90.4379941,13.369072 89.4796788,13.64708 C82.8411872,15.5729115 82.8411872,15.5729115 78.6166926,16.7984406 C69.0147978,19.5839576 68.9498422,19.6028013 54.0641664,23.9211472 Z" id="Rectangle-Copy-4" fill="#FFFFFF"></path>
            <path d="M51.7141546,22.8600333 C51.3219508,23.2036837 51.0969113,23.7001859 51.0969113,24.2221734 L51.0969113,95.0823399 C51.0969113,95.5785694 51.3003619,96.0529751 51.6595803,96.3946541 C52.382977,97.08273 53.526329,97.0537008 54.2139702,96.3297541 L77.7270137,71.5752902 C78.0465728,71.2388593 78.2248279,70.7922762 78.2248279,70.327876 L78.2248279,3.61995861 C78.2248279,3.18108461 78.0655897,2.75720184 77.7768143,2.42716721 C77.1192666,1.67567116 75.9780462,1.59992271 75.2271981,2.25781853 L51.7141546,22.8600333 Z" id="Rectangle" fill="#FFFFFF"></path>
            <path d="M49.3377125,24.0099838 L13.6159733,13.64708 C12.657658,13.369072 11.6552865,13.9212707 11.3771756,14.8812761 C11.3297023,15.045148 11.3056069,15.2149212 11.3056069,15.3855541 L11.3056069,78.5406127 C11.3056069,79.2373363 11.7049354,79.8720453 12.3321835,80.1729402 L48.0539226,97.3088852 C48.9536729,97.7405011 50.0327581,97.3604803 50.4644149,96.4593917 C50.5814525,96.2150742 50.6422192,95.9475501 50.6422192,95.6765577 L50.6422192,25.7484579 C50.6422192,24.9426382 50.1102899,24.2341091 49.3377125,24.0099838 Z" id="Rectangle-Copy-4" fill="url(#linearGradient-1)"></path>
            <path d="M50.9293236,22.8600333 L27.4162802,2.25781853 C26.6654321,1.59992271 25.5242117,1.67567116 24.8666639,2.42716721 C24.5778886,2.75720184 24.4186504,3.18108461 24.4186504,3.61995861 L24.4186504,70.327876 C24.4186504,70.7922762 24.5969055,71.2388593 24.9164646,71.5752902 L48.4295081,96.3297541 C49.1171493,97.0537008 50.2605013,97.08273 50.983898,96.3946541 C51.3431164,96.0529751 51.546567,95.5785694 51.546567,95.0823399 L51.546567,24.2221734 C51.546567,23.7001859 51.3215274,23.2036837 50.9293236,22.8600333 Z" id="Rectangle" fill="url(#linearGradient-1)"></path>
        </g>
    </g>
</svg>