<?xml version="1.0" encoding="UTF-8"?>
<svg width="320px" height="100px" viewBox="0 0 320 100" version="1.1" xmlns="http://www.w3.org/2000/svg" xmlns:xlink="http://www.w3.org/1999/xlink">
    <!-- Generator: Sketch 52.6 (67491) - http://www.bohemiancoding.com/sketch -->
    <title>book-logotype-altbg</title>
    <desc>Created with Sketch.</desc>
    <defs>
        <linearGradient x1="50%" y1="0%" x2="50%" y2="100%" id="linearGradient-1">
            <stop stop-color="#FCE086" offset="0%"></stop>
            <stop stop-color="#F7BE4E" offset="100%"></stop>
        </linearGradient>
    </defs>
    <g id="book-logotype-altbg" stroke="none" stroke-width="1" fill="none" fill-rule="evenodd">
        <text id="Bookr" font-family="Aleo-Bold, Aleo" font-size="73" font-weight="bold" letter-spacing="-1" fill="#333333">
            <tspan x="-1" y="86">Bo</tspan>
            <tspan x="83.359" y="86">okr</tspan>
        </text>
        <g id="logo-copy" transform="translate(216.000000, 0.000000)" stroke="#333333" stroke-width="3.6199095">
            <path d="M3.6173913,28.959276 C2.61945373,28.959276 1.80995475,29.7693385 1.80995475,30.7692308 L1.80995475,96.0358177 C1.80995558,96.0379455 1.80995558,96.0379455 1.80995975,96.0400733 C1.81230742,97.0399604 2.62370251,97.8481138 3.62163503,97.8457675 L100.386852,97.6182527 C101.383131,97.6159103 102.190045,96.8065351 102.190045,95.8083029 L102.190045,30.7692308 C102.190045,29.7693385 101.380546,28.959276 100.382609,28.959276 L3.6173913,28.959276 Z" id="Rectangle-Copy-5" fill="#DFDCE3"></path>
            <path d="M54.0641664,23.9211472 C52.9273309,24.772427 52.453433,25.4243579 52.453433,25.7484579 L52.453433,95.6765577 C52.453433,95.9475501 52.5141996,96.2150742 52.6312373,96.4593917 C53.062894,97.3604803 54.1419792,97.7405011 55.0417296,97.3088852 L90.7634687,80.1729402 C91.3907168,79.8720453 91.7900452,79.2373363 91.7900452,78.5406127 L91.7900452,15.3855541 C91.7900452,15.2149212 91.7659499,15.045148 91.7184766,14.8812761 C91.4403657,13.9212707 90.4379941,13.369072 89.4796788,13.64708 C82.8411872,15.5729115 82.8411872,15.5729115 78.6166926,16.7984406 C69.0147978,19.5839576 68.9498422,19.6028013 54.0641664,23.9211472 Z" id="Rectangle-Copy-4" fill="#DFDCE3"></path>
            <path d="M51.7141546,22.8600333 C51.3219508,23.2036837 51.0969113,23.7001859 51.0969113,24.2221734 L51.0969113,95.0823399 C51.0969113,95.5785694 51.3003619,96.0529751 51.6595803,96.3946541 C52.382977,97.08273 53.526329,97.0537008 54.2139702,96.3297541 L77.7270137,71.5752902 C78.0465728,71.2388593 78.2248279,70.7922762 78.2248279,70.327876 L78.2248279,3.61995861 C78.2248279,3.18108461 78.0655897,2.75720184 77.7768143,2.42716721 C77.1192666,1.67567116 75.9780462,1.59992271 75.2271981,2.25781853 L51.7141546,22.8600333 Z" id="Rectangle" fill="#DFDCE3"></path>
            <path d="M49.3377125,24.0099838 L13.6159733,13.64708 C12.657658,13.369072 11.6552865,13.9212707 11.3771756,14.8812761 C11.3297023,15.045148 11.3056069,15.2149212 11.3056069,15.3855541 L11.3056069,78.5406127 C11.3056069,79.2373363 11.7049354,79.8720453 12.3321835,80.1729402 L48.0539226,97.3088852 C48.9536729,97.7405011 50.0327581,97.3604803 50.4644149,96.4593917 C50.5814525,96.2150742 50.6422192,95.9475501 50.6422192,95.6765577 L50.6422192,25.7484579 C50.6422192,24.9426382 50.1102899,24.2341091 49.3377125,24.0099838 Z" id="Rectangle-Copy-4" fill="url(#linearGradient-1)"></path>
            <path d="M50.9293236,22.8600333 L27.4162802,2.25781853 C26.6654321,1.59992271 25.5242117,1.67567116 24.8666639,2.42716721 C24.5778886,2.75720184 24.4186504,3.18108461 24.4186504,3.61995861 L24.4186504,70.327876 C24.4186504,70.7922762 24.5969055,71.2388593 24.9164646,71.5752902 L48.4295081,96.3297541 C49.1171493,97.0537008 50.2605013,97.08273 50.983898,96.3946541 C51.3431164,96.0529751 51.546567,95.5785694 51.546567,95.0823399 L51.546567,24.2221734 C51.546567,23.7001859 51.3215274,23.2036837 50.9293236,22.8600333 Z" id="Rectangle" fill="url(#linearGradient-1)"></path>
        </g>
    </g>
</svg>