<?xml version="1.0" encoding="UTF-8"?>
<svg width="250px" height="240px" viewBox="0 0 250 240" version="1.1" xmlns="http://www.w3.org/2000/svg" xmlns:xlink="http://www.w3.org/1999/xlink">
    <!-- Generator: Sketch 52.6 (67491) - http://www.bohemiancoding.com/sketch -->
    <title>bookr-logo</title>
    <desc>Created with Sketch.</desc>
    <g id="bookr-logo" stroke="none" stroke-width="1" fill="none" fill-rule="evenodd">
        <g id="logo" transform="translate(0.000000, 1.000000)" fill="#FFFFFF" stroke="#333333" stroke-width="8.70170553">
            <path d="M8.69565217,69.5092238 C6.29520434,69.5092238 4.35085277,71.4518158 4.35085277,73.8461538 L4.35085277,230.485962 C4.35085476,230.491053 4.35085476,230.491053 4.35086474,230.496143 C4.3564955,232.890482 6.30542139,234.828515 8.7058698,234.822881 L241.314565,234.276845 C243.711015,234.27122 245.649147,232.330286 245.649147,229.939927 L245.649147,73.8461538 C245.649147,71.4518158 243.704796,69.5092238 241.304348,69.5092238 L8.69565217,69.5092238 Z" id="Rectangle-Copy-5"></path>
            <path d="M129.224027,57.6311655 C127.366819,58.1690811 126.089983,59.8671031 126.089983,61.796299 L126.089983,229.623738 C126.089983,230.272112 126.235624,230.912266 126.516223,231.497084 C127.553002,233.657909 130.149292,234.57078 132.314299,233.533874 L218.183864,192.407606 C219.690961,191.685799 220.649147,190.165256 220.649147,188.49747 L220.649147,36.9253298 C220.649147,36.5171034 220.591406,36.110914 220.477626,35.7187892 C219.81004,33.4180507 217.399612,32.0922888 215.093592,32.7601964 L129.224027,57.6311655 Z" id="Rectangle-Copy-4"></path>
            <path d="M124.310274,54.8715903 C123.368793,55.6951992 122.829114,56.8839825 122.829114,58.1332161 L122.829114,228.197616 C122.829114,229.385167 123.316983,230.52096 124.179162,231.339729 C125.918799,232.991779 128.671032,232.922013 130.324441,231.184094 L186.84618,171.773381 C187.613038,170.967326 188.040452,169.89824 188.040452,168.786902 L188.040452,8.68790066 C188.040452,7.63768014 187.658663,6.62300588 186.965771,5.83238311 C185.384921,4.02855707 182.637864,3.84651305 180.832013,5.42627481 L124.310274,54.8715903 Z" id="Rectangle"></path>
            <path d="M118.60206,57.6311655 L32.7324945,32.7601964 C30.4264753,32.0922888 28.0160467,33.4180507 27.3484609,35.7187892 C27.2346813,36.110914 27.1769397,36.5171034 27.1769397,36.9253298 L27.1769397,188.49747 C27.1769397,190.165256 28.1351256,191.685799 29.642223,192.407606 L115.511788,233.533874 C117.676795,234.57078 120.273085,233.657909 121.309864,231.497084 C121.590463,230.912266 121.736104,230.272112 121.736104,229.623738 L121.736104,61.796299 C121.736104,59.8671031 120.459268,58.1690811 118.60206,57.6311655 Z" id="Rectangle-Copy-4"></path>
            <path d="M122.428857,54.8715903 L65.9071175,5.42627481 C64.1012663,3.84651305 61.3542097,4.02855707 59.7733596,5.83238311 C59.0804679,6.62300588 58.6986789,7.63768014 58.6986789,8.68790066 L58.6986789,168.786902 C58.6986789,169.89824 59.126092,170.967326 59.8929506,171.773381 L116.41469,231.184094 C118.068099,232.922013 120.820331,232.991779 122.559969,231.339729 C123.422148,230.52096 123.910017,229.385167 123.910017,228.197616 L123.910017,58.1332161 C123.910017,56.8839825 123.370337,55.6951992 122.428857,54.8715903 Z" id="Rectangle"></path>
        </g>
    </g>
</svg>